<mxfile host="app.diagrams.net" modified="2024-05-13T10:07:37.812Z" agent="Mozilla/5.0 (Windows NT 10.0; Win64; x64) AppleWebKit/537.36 (KHTML, like Gecko) Chrome/124.0.0.0 Safari/537.36" etag="zZHS-27014ITF8xhP93d" version="24.4.0" type="device">
  <diagram name="Página-1" id="AeGvnoPivyPsqh49DwE4">
    <mxGraphModel dx="913" dy="484" grid="1" gridSize="10" guides="1" tooltips="1" connect="1" arrows="1" fold="1" page="1" pageScale="1" pageWidth="827" pageHeight="1169" math="0" shadow="0">
      <root>
        <mxCell id="0" />
        <mxCell id="1" parent="0" />
        <mxCell id="jjHvnu01JO80f5ahsWiL-7" style="edgeStyle=orthogonalEdgeStyle;rounded=0;orthogonalLoop=1;jettySize=auto;html=1;exitX=0.5;exitY=1;exitDx=0;exitDy=0;entryX=0.5;entryY=0;entryDx=0;entryDy=0;" edge="1" parent="1" source="jjHvnu01JO80f5ahsWiL-54" target="jjHvnu01JO80f5ahsWiL-6">
          <mxGeometry relative="1" as="geometry">
            <mxPoint x="414" y="130" as="sourcePoint" />
          </mxGeometry>
        </mxCell>
        <mxCell id="jjHvnu01JO80f5ahsWiL-2" value="&lt;h1 style=&quot;margin-top: 0px;&quot;&gt;Initial Page&lt;/h1&gt;" style="text;html=1;whiteSpace=wrap;overflow=hidden;rounded=0;" vertex="1" parent="1">
          <mxGeometry x="351" y="21" width="136" height="40" as="geometry" />
        </mxCell>
        <mxCell id="jjHvnu01JO80f5ahsWiL-17" style="edgeStyle=orthogonalEdgeStyle;rounded=0;orthogonalLoop=1;jettySize=auto;html=1;exitX=0.5;exitY=1;exitDx=0;exitDy=0;entryX=0.5;entryY=0;entryDx=0;entryDy=0;" edge="1" parent="1" source="jjHvnu01JO80f5ahsWiL-6" target="jjHvnu01JO80f5ahsWiL-16">
          <mxGeometry relative="1" as="geometry" />
        </mxCell>
        <mxCell id="jjHvnu01JO80f5ahsWiL-6" value="Inicialização de váriaveis" style="rounded=0;whiteSpace=wrap;html=1;fillColor=#b1ddf0;strokeColor=#10739e;" vertex="1" parent="1">
          <mxGeometry x="354" y="170" width="120" height="60" as="geometry" />
        </mxCell>
        <mxCell id="jjHvnu01JO80f5ahsWiL-30" style="edgeStyle=orthogonalEdgeStyle;rounded=0;orthogonalLoop=1;jettySize=auto;html=1;exitX=0.5;exitY=1;exitDx=0;exitDy=0;entryX=0.5;entryY=0;entryDx=0;entryDy=0;" edge="1" parent="1" source="jjHvnu01JO80f5ahsWiL-8" target="jjHvnu01JO80f5ahsWiL-24">
          <mxGeometry relative="1" as="geometry" />
        </mxCell>
        <mxCell id="jjHvnu01JO80f5ahsWiL-8" value="&lt;font style=&quot;font-size: 12px;&quot;&gt;Botão&amp;nbsp;&lt;/font&gt;&lt;div&gt;&lt;font style=&quot;font-size: 12px;&quot;&gt;&quot;Confirmar Dados&quot;&lt;/font&gt;&lt;/div&gt;" style="shape=parallelogram;perimeter=parallelogramPerimeter;whiteSpace=wrap;html=1;fixedSize=1;fontSize=12;fillColor=#cdeb8b;strokeColor=#36393d;" vertex="1" parent="1">
          <mxGeometry x="132" y="376" width="140" height="63" as="geometry" />
        </mxCell>
        <mxCell id="jjHvnu01JO80f5ahsWiL-22" style="edgeStyle=orthogonalEdgeStyle;rounded=0;orthogonalLoop=1;jettySize=auto;html=1;exitX=0.5;exitY=1;exitDx=0;exitDy=0;entryX=0.5;entryY=0;entryDx=0;entryDy=0;" edge="1" parent="1" source="jjHvnu01JO80f5ahsWiL-9" target="jjHvnu01JO80f5ahsWiL-21">
          <mxGeometry relative="1" as="geometry" />
        </mxCell>
        <mxCell id="jjHvnu01JO80f5ahsWiL-9" value="Botão&amp;nbsp;&lt;div&gt;&quot;Limpar&quot;&lt;/div&gt;" style="shape=parallelogram;perimeter=parallelogramPerimeter;whiteSpace=wrap;html=1;fixedSize=1;fillColor=#cdeb8b;strokeColor=#36393d;" vertex="1" parent="1">
          <mxGeometry x="334" y="375" width="140" height="63" as="geometry" />
        </mxCell>
        <mxCell id="jjHvnu01JO80f5ahsWiL-44" style="edgeStyle=orthogonalEdgeStyle;rounded=0;orthogonalLoop=1;jettySize=auto;html=1;exitX=0.5;exitY=1;exitDx=0;exitDy=0;entryX=0.5;entryY=0;entryDx=0;entryDy=0;" edge="1" parent="1" source="jjHvnu01JO80f5ahsWiL-11" target="jjHvnu01JO80f5ahsWiL-42">
          <mxGeometry relative="1" as="geometry" />
        </mxCell>
        <mxCell id="jjHvnu01JO80f5ahsWiL-11" value="Botão&lt;div&gt;&amp;nbsp;&quot;Base de Dados&quot;&lt;/div&gt;" style="shape=parallelogram;perimeter=parallelogramPerimeter;whiteSpace=wrap;html=1;fixedSize=1;fillColor=#cdeb8b;strokeColor=#36393d;" vertex="1" parent="1">
          <mxGeometry x="533" y="375" width="140" height="63" as="geometry" />
        </mxCell>
        <mxCell id="jjHvnu01JO80f5ahsWiL-19" style="edgeStyle=orthogonalEdgeStyle;rounded=0;orthogonalLoop=1;jettySize=auto;html=1;exitX=0.5;exitY=1;exitDx=0;exitDy=0;entryX=0.5;entryY=0;entryDx=0;entryDy=0;" edge="1" parent="1" source="jjHvnu01JO80f5ahsWiL-16" target="jjHvnu01JO80f5ahsWiL-8">
          <mxGeometry relative="1" as="geometry" />
        </mxCell>
        <mxCell id="jjHvnu01JO80f5ahsWiL-20" style="edgeStyle=orthogonalEdgeStyle;rounded=0;orthogonalLoop=1;jettySize=auto;html=1;exitX=0.5;exitY=1;exitDx=0;exitDy=0;entryX=0.5;entryY=0;entryDx=0;entryDy=0;" edge="1" parent="1" source="jjHvnu01JO80f5ahsWiL-16" target="jjHvnu01JO80f5ahsWiL-11">
          <mxGeometry relative="1" as="geometry" />
        </mxCell>
        <mxCell id="jjHvnu01JO80f5ahsWiL-16" value="Aguarda por um botão pressionado" style="rounded=0;whiteSpace=wrap;html=1;fillColor=#b1ddf0;strokeColor=#10739e;" vertex="1" parent="1">
          <mxGeometry x="354" y="270" width="120" height="60" as="geometry" />
        </mxCell>
        <mxCell id="jjHvnu01JO80f5ahsWiL-18" style="edgeStyle=orthogonalEdgeStyle;rounded=0;orthogonalLoop=1;jettySize=auto;html=1;exitX=0.5;exitY=1;exitDx=0;exitDy=0;entryX=0.571;entryY=0.079;entryDx=0;entryDy=0;entryPerimeter=0;" edge="1" parent="1" source="jjHvnu01JO80f5ahsWiL-16" target="jjHvnu01JO80f5ahsWiL-9">
          <mxGeometry relative="1" as="geometry" />
        </mxCell>
        <mxCell id="jjHvnu01JO80f5ahsWiL-53" style="edgeStyle=orthogonalEdgeStyle;rounded=0;orthogonalLoop=1;jettySize=auto;html=1;entryX=0.984;entryY=0.331;entryDx=0;entryDy=0;entryPerimeter=0;" edge="1" parent="1">
          <mxGeometry relative="1" as="geometry">
            <mxPoint x="404.9999999999999" y="583" as="sourcePoint" />
            <mxPoint x="473.08000000000015" y="282.86" as="targetPoint" />
            <Array as="points">
              <mxPoint x="405" y="943" />
              <mxPoint x="741" y="943" />
              <mxPoint x="741" y="283" />
            </Array>
          </mxGeometry>
        </mxCell>
        <mxCell id="jjHvnu01JO80f5ahsWiL-21" value="Eliminar os valores das vars, o texto dentro das caixas de texto e definir a 0 os ints" style="rounded=0;whiteSpace=wrap;html=1;fillColor=#b1ddf0;strokeColor=#10739e;" vertex="1" parent="1">
          <mxGeometry x="334" y="510" width="140" height="80" as="geometry" />
        </mxCell>
        <mxCell id="jjHvnu01JO80f5ahsWiL-32" style="edgeStyle=orthogonalEdgeStyle;rounded=0;orthogonalLoop=1;jettySize=auto;html=1;exitX=0.5;exitY=1;exitDx=0;exitDy=0;entryX=0.5;entryY=0;entryDx=0;entryDy=0;" edge="1" parent="1" source="jjHvnu01JO80f5ahsWiL-24" target="jjHvnu01JO80f5ahsWiL-26">
          <mxGeometry relative="1" as="geometry" />
        </mxCell>
        <mxCell id="jjHvnu01JO80f5ahsWiL-24" value="Definir um bool &quot;isRfidFormOpen&quot; que vai ser verdadeiro se o form &quot;rfidReader&quot; estiver aberto" style="rounded=0;whiteSpace=wrap;html=1;fillColor=#b1ddf0;strokeColor=#10739e;" vertex="1" parent="1">
          <mxGeometry x="132" y="510" width="140" height="80" as="geometry" />
        </mxCell>
        <mxCell id="jjHvnu01JO80f5ahsWiL-33" style="edgeStyle=orthogonalEdgeStyle;rounded=0;orthogonalLoop=1;jettySize=auto;html=1;exitX=0.5;exitY=1;exitDx=0;exitDy=0;entryX=0.5;entryY=0;entryDx=0;entryDy=0;" edge="1" parent="1" source="jjHvnu01JO80f5ahsWiL-26" target="jjHvnu01JO80f5ahsWiL-27">
          <mxGeometry relative="1" as="geometry" />
        </mxCell>
        <mxCell id="jjHvnu01JO80f5ahsWiL-26" value="Obter os valores das caixas de texto e igualar ás respetivas vars" style="rounded=0;whiteSpace=wrap;html=1;fillColor=#b1ddf0;strokeColor=#10739e;" vertex="1" parent="1">
          <mxGeometry x="132" y="620" width="140" height="80" as="geometry" />
        </mxCell>
        <mxCell id="jjHvnu01JO80f5ahsWiL-28" style="edgeStyle=orthogonalEdgeStyle;rounded=0;orthogonalLoop=1;jettySize=auto;html=1;exitX=0;exitY=0.5;exitDx=0;exitDy=0;entryX=0;entryY=0.5;entryDx=0;entryDy=0;" edge="1" parent="1" source="jjHvnu01JO80f5ahsWiL-27" target="jjHvnu01JO80f5ahsWiL-16">
          <mxGeometry relative="1" as="geometry" />
        </mxCell>
        <mxCell id="jjHvnu01JO80f5ahsWiL-29" value="SIM" style="edgeLabel;html=1;align=center;verticalAlign=middle;resizable=0;points=[];" vertex="1" connectable="0" parent="jjHvnu01JO80f5ahsWiL-28">
          <mxGeometry x="-0.1383" y="1" relative="1" as="geometry">
            <mxPoint y="282" as="offset" />
          </mxGeometry>
        </mxCell>
        <mxCell id="jjHvnu01JO80f5ahsWiL-35" style="edgeStyle=orthogonalEdgeStyle;rounded=0;orthogonalLoop=1;jettySize=auto;html=1;exitX=0.5;exitY=1;exitDx=0;exitDy=0;entryX=0.5;entryY=0;entryDx=0;entryDy=0;" edge="1" parent="1" source="jjHvnu01JO80f5ahsWiL-27" target="jjHvnu01JO80f5ahsWiL-34">
          <mxGeometry relative="1" as="geometry" />
        </mxCell>
        <mxCell id="jjHvnu01JO80f5ahsWiL-36" value="NÃO" style="edgeLabel;html=1;align=center;verticalAlign=middle;resizable=0;points=[];" vertex="1" connectable="0" parent="jjHvnu01JO80f5ahsWiL-35">
          <mxGeometry y="3" relative="1" as="geometry">
            <mxPoint as="offset" />
          </mxGeometry>
        </mxCell>
        <mxCell id="jjHvnu01JO80f5ahsWiL-27" value="&amp;nbsp;&quot;isRfidFormOpen&quot;&lt;div&gt;= true&lt;/div&gt;" style="rhombus;whiteSpace=wrap;html=1;fillColor=#fad9d5;strokeColor=#ae4132;" vertex="1" parent="1">
          <mxGeometry x="137" y="740" width="130" height="90" as="geometry" />
        </mxCell>
        <mxCell id="jjHvnu01JO80f5ahsWiL-39" style="edgeStyle=orthogonalEdgeStyle;rounded=0;orthogonalLoop=1;jettySize=auto;html=1;exitX=0.5;exitY=1;exitDx=0;exitDy=0;entryX=0.5;entryY=0;entryDx=0;entryDy=0;" edge="1" parent="1" source="jjHvnu01JO80f5ahsWiL-34" target="jjHvnu01JO80f5ahsWiL-38">
          <mxGeometry relative="1" as="geometry" />
        </mxCell>
        <mxCell id="jjHvnu01JO80f5ahsWiL-34" value="Vai verificar se os campos &quot;idProdOrdem&quot;, &quot;artigo&quot;, &quot;quantidade&quot; são diferentes de 0 para adicionar os valores à tabela&lt;span style=&quot;white-space: pre;&quot;&gt;&#x9;&lt;/span&gt;" style="rounded=0;whiteSpace=wrap;html=1;fillColor=#b1ddf0;strokeColor=#10739e;" vertex="1" parent="1">
          <mxGeometry x="127" y="880" width="150" height="100" as="geometry" />
        </mxCell>
        <mxCell id="jjHvnu01JO80f5ahsWiL-40" style="edgeStyle=orthogonalEdgeStyle;rounded=0;orthogonalLoop=1;jettySize=auto;html=1;exitX=0;exitY=0.5;exitDx=0;exitDy=0;entryX=0;entryY=0.25;entryDx=0;entryDy=0;" edge="1" parent="1" source="jjHvnu01JO80f5ahsWiL-38" target="jjHvnu01JO80f5ahsWiL-16">
          <mxGeometry relative="1" as="geometry">
            <mxPoint x="100" y="1070" as="sourcePoint" />
            <mxPoint x="327" y="300" as="targetPoint" />
            <Array as="points">
              <mxPoint x="80" y="1070" />
              <mxPoint x="80" y="285" />
            </Array>
          </mxGeometry>
        </mxCell>
        <mxCell id="jjHvnu01JO80f5ahsWiL-38" value="Instancia e abre o form &quot;rfidReader&quot;" style="rounded=0;whiteSpace=wrap;html=1;fillColor=#b1ddf0;strokeColor=#10739e;" vertex="1" parent="1">
          <mxGeometry x="127" y="1020" width="150" height="100" as="geometry" />
        </mxCell>
        <mxCell id="jjHvnu01JO80f5ahsWiL-41" value="Instancia e abre o form &quot;allDataBaseAcess&quot;" style="rounded=0;whiteSpace=wrap;html=1;fillColor=#b1ddf0;strokeColor=#10739e;" vertex="1" parent="1">
          <mxGeometry x="528" y="760" width="150" height="100" as="geometry" />
        </mxCell>
        <mxCell id="jjHvnu01JO80f5ahsWiL-45" style="edgeStyle=orthogonalEdgeStyle;rounded=0;orthogonalLoop=1;jettySize=auto;html=1;exitX=0.5;exitY=1;exitDx=0;exitDy=0;entryX=0.5;entryY=0;entryDx=0;entryDy=0;" edge="1" parent="1" source="jjHvnu01JO80f5ahsWiL-42" target="jjHvnu01JO80f5ahsWiL-43">
          <mxGeometry relative="1" as="geometry" />
        </mxCell>
        <mxCell id="jjHvnu01JO80f5ahsWiL-42" value="Definir um bool &quot;isBdFormOpen&quot; que vai ser verdadeiro se o form &quot;allDataBaseAcess&quot; estiver aberto" style="rounded=0;whiteSpace=wrap;html=1;fillColor=#b1ddf0;strokeColor=#10739e;" vertex="1" parent="1">
          <mxGeometry x="533" y="510" width="140" height="80" as="geometry" />
        </mxCell>
        <mxCell id="jjHvnu01JO80f5ahsWiL-47" value="" style="edgeStyle=orthogonalEdgeStyle;rounded=0;orthogonalLoop=1;jettySize=auto;html=1;" edge="1" parent="1" source="jjHvnu01JO80f5ahsWiL-43" target="jjHvnu01JO80f5ahsWiL-41">
          <mxGeometry relative="1" as="geometry" />
        </mxCell>
        <mxCell id="jjHvnu01JO80f5ahsWiL-48" value="NÃO" style="edgeLabel;html=1;align=center;verticalAlign=middle;resizable=0;points=[];" vertex="1" connectable="0" parent="jjHvnu01JO80f5ahsWiL-47">
          <mxGeometry x="-0.44" y="-3" relative="1" as="geometry">
            <mxPoint as="offset" />
          </mxGeometry>
        </mxCell>
        <mxCell id="jjHvnu01JO80f5ahsWiL-43" value="&amp;nbsp;&quot;isBdFormOpen&lt;span style=&quot;color: rgba(0, 0, 0, 0); font-family: monospace; font-size: 0px; text-align: start; text-wrap: nowrap;&quot;&gt;%3CmxGraphModel%3E%3Croot%3E%3CmxCell%20id%3D%220%22%2F%3E%3CmxCell%20id%3D%221%22%20parent%3D%220%22%2F%3E%3CmxCell%20id%3D%222%22%20value%3D%22%26amp%3Bnbsp%3B%26quot%3BisRfidFormOpen%26quot%3B%26lt%3Bdiv%26gt%3B%3D%20true%26lt%3B%2Fdiv%26gt%3B%22%20style%3D%22rhombus%3BwhiteSpace%3Dwrap%3Bhtml%3D1%3B%22%20vertex%3D%221%22%20parent%3D%221%22%3E%3CmxGeometry%20x%3D%22137%22%20y%3D%22740%22%20width%3D%22130%22%20height%3D%2290%22%20as%3D%22geometry%22%2F%3E%3C%2FmxCell%3E%3C%2Froot%3E%3C%2FmxGraphModel%3EisBdI&lt;/span&gt;&quot;&lt;div&gt;= true&lt;/div&gt;" style="rhombus;whiteSpace=wrap;html=1;fillColor=#fad9d5;strokeColor=#ae4132;" vertex="1" parent="1">
          <mxGeometry x="538" y="630" width="130" height="90" as="geometry" />
        </mxCell>
        <mxCell id="jjHvnu01JO80f5ahsWiL-49" style="edgeStyle=orthogonalEdgeStyle;rounded=0;orthogonalLoop=1;jettySize=auto;html=1;exitX=1;exitY=0.5;exitDx=0;exitDy=0;entryX=0.993;entryY=0.397;entryDx=0;entryDy=0;entryPerimeter=0;" edge="1" parent="1" source="jjHvnu01JO80f5ahsWiL-43" target="jjHvnu01JO80f5ahsWiL-16">
          <mxGeometry relative="1" as="geometry" />
        </mxCell>
        <mxCell id="jjHvnu01JO80f5ahsWiL-50" value="SIM" style="edgeLabel;html=1;align=center;verticalAlign=middle;resizable=0;points=[];" vertex="1" connectable="0" parent="jjHvnu01JO80f5ahsWiL-49">
          <mxGeometry x="-0.861" y="2" relative="1" as="geometry">
            <mxPoint as="offset" />
          </mxGeometry>
        </mxCell>
        <mxCell id="jjHvnu01JO80f5ahsWiL-52" style="edgeStyle=orthogonalEdgeStyle;rounded=0;orthogonalLoop=1;jettySize=auto;html=1;exitX=1;exitY=0.5;exitDx=0;exitDy=0;entryX=1.001;entryY=0.565;entryDx=0;entryDy=0;entryPerimeter=0;" edge="1" parent="1" source="jjHvnu01JO80f5ahsWiL-41" target="jjHvnu01JO80f5ahsWiL-16">
          <mxGeometry relative="1" as="geometry">
            <Array as="points">
              <mxPoint x="710" y="810" />
              <mxPoint x="710" y="304" />
            </Array>
          </mxGeometry>
        </mxCell>
        <mxCell id="jjHvnu01JO80f5ahsWiL-54" value="INICIO" style="ellipse;whiteSpace=wrap;html=1;strokeColor=#B20000;fillColor=#e51400;fontColor=#ffffff;" vertex="1" parent="1">
          <mxGeometry x="354" y="60" width="120" height="70" as="geometry" />
        </mxCell>
      </root>
    </mxGraphModel>
  </diagram>
</mxfile>
